<?xml version="1.0" standalone="no"?>
<!DOCTYPE svg PUBLIC "-//W3C//DTD SVG 1.1//EN" "http://www.w3.org/Graphics/SVG/1.1/DTD/svg11.dtd" >
<!--
2013-9-30: Created.
-->
<svg>
<metadata>
Created by iconfont
</metadata>
<defs>

<font id="iconfont" horiz-adv-x="1024" >
  <font-face
    font-family="iconfont"
    font-weight="500"
    font-stretch="normal"
    units-per-em="1024"
    ascent="896"
    descent="-128"
  />
    <missing-glyph />
    
    <glyph glyph-name="yingyong" unicode="&#58975;" d="M770.64013-87.829979 261.04183-87.829979c-75.888388 0-137.627521 61.742203-137.627521 137.632637L123.414309 559.394818c0 75.888388 61.739133 137.627521 137.627521 137.627521l509.5983 0c75.888388 0 137.627521-61.739133 137.627521-137.627521l0-509.592161C908.267651-26.087776 846.528518-87.829979 770.64013-87.829979zM261.04183 676.556215c-64.603367 0-117.161397-52.55803-117.161397-117.161397l0-509.592161c0-64.606437 52.55803-117.166513 117.161397-117.166513l509.5983 0c64.603367 0 117.161397 52.560076 117.161397 117.166513L887.801527 559.394818c0 64.603367-52.55803 117.161397-117.161397 117.161397L261.04183 676.556215zM421.450193 548.091378 327.062476 548.091378c-34.754548 0-62.925145-28.177759-62.925145-62.931285l0-94.387717c0-34.753525 28.170596-62.925145 62.925145-62.925145l94.387717 0c34.753525 0 62.931285 28.170596 62.931285 62.925145l0 94.387717C484.381477 519.913619 456.203718 548.091378 421.450193 548.091378zM704.619484 548.091378l-94.386694 0c-34.755572 0-62.925145-28.177759-62.925145-62.931285l0-94.387717c0-34.753525 28.169573-62.925145 62.925145-62.925145l94.386694 0c34.754548 0 62.924121 28.170596 62.924121 62.925145l0 94.387717C767.543605 519.913619 739.374032 548.091378 704.619484 548.091378zM421.450193 264.921064 327.062476 264.921064c-34.754548 0-62.925145-28.16855-62.925145-62.924121l0-94.393857c0-34.747385 28.170596-62.925145 62.925145-62.925145l94.387717 0c34.753525 0 62.931285 28.177759 62.931285 62.925145l0 94.393857C484.381477 236.75149 456.203718 264.921064 421.450193 264.921064zM704.619484 264.921064l-94.386694 0c-34.755572 0-62.925145-28.16855-62.925145-62.924121l0-94.393857c0-34.747385 28.169573-62.925145 62.925145-62.925145l94.386694 0c34.754548 0 62.924121 28.177759 62.924121 62.925145l0 94.393857C767.543605 236.75149 739.374032 264.921064 704.619484 264.921064z"  horiz-adv-x="1024" />

    
    <glyph glyph-name="xinxi" unicode="&#59066;" d="M512 652.367743c-194.62856 0-352.418907-157.790347-352.418907-352.418907s157.790347-352.418907 352.418907-352.418907 352.418907 157.790347 352.418907 352.418907S706.62856 652.367743 512 652.367743zM534.512241 86.901169c-19.44239-12.791046-39.089437-25.275107-60.578395-34.586989-11.460777-4.911762-25.684421-1.125612-33.461377 8.80024-7.367643 9.41421-10.64215 20.158689-8.390926 31.619466 5.62806 27.62866 11.767763 55.154992 18.21445 82.578995 8.493255 35.81493 17.498151 71.425202 26.093734 107.137804 0.920955 3.78615 0.716299 7.879285 0.306985 11.870091-0.511642 4.40012-7.265314 7.265314-12.893375 4.911762-8.697911-3.683821-17.191166-7.879285-25.275107-12.58639-7.060658-4.093135-13.507345-9.311882-20.158689-14.018987-2.148896-1.534926-6.139702-1.22794-7.674628 1.125612-2.353553 3.581493-4.40012 7.367643-6.753672 11.358449 6.037374 4.502448 11.563106 8.80024 17.191166 12.995703 23.330868 17.191166 46.354752 34.689317 70.094934 51.266513 10.130509 7.060658 21.488958 12.279404 32.64275 17.60048 6.344359 2.967523 13.507345 3.376836 20.261017 0.818627 8.288598-3.069851 11.870091-10.130509 13.507345-18.21445 2.148896-10.437494 1.534926-20.977316-1.125612-31.210153-11.153792-42.466274-22.716898-84.830219-33.666034-127.296492-6.344359-24.558809-11.972419-49.322274-17.702808-74.08574-1.22794-5.525732 3.990806-13.302688 10.130509-12.58639 5.218747 0.61397 10.64215 2.046567 15.144599 4.604777 8.288598 4.707105 15.963226 10.64215 23.944839 15.963226 2.865194 1.944239 5.832717 3.683821 8.902568 5.321075 3.581493 1.841911 6.651344 0.920955 8.493255-2.762866 1.841911-3.581493 3.479165-7.367643 5.423404-11.563106C562.652543 106.138903 548.735885 96.315379 534.512241 86.901169zM574.420306 439.320076c-7.162986-7.060658-16.065554-11.358449-26.707705-11.870091-12.381733-0.61397-22.512241 3.172179-30.289198 12.893375-5.321075 6.651344-7.265314 14.530629-7.469971 24.558809 1.739582 18.419107 9.311882 34.586989 28.651944 43.284901 7.572299 3.376836 15.656241 3.376836 23.637854 1.432597l0 0c11.563106-2.762866 19.647047-9.721195 23.84251-20.977316C593.248726 469.506945 588.439292 453.032078 574.420306 439.320076z"  horiz-adv-x="1024" />

    
    <glyph glyph-name="yingyong1" unicode="&#58957;" d="M0 896l254.336 0 0-254.272L0 641.728 0 896 0 896zM377.216 896l266.176 0 0-254.272L377.216 641.728 377.216 896 377.216 896zM766.336 896 1024 896l0-254.272-257.664 0L766.336 896 766.336 896zM766.336 517.12 1024 517.12l0-264.448-257.664 0L766.336 517.12 766.336 517.12zM377.216 517.12l266.176 0 0-264.448L377.216 252.672 377.216 517.12 377.216 517.12zM0 517.12l254.336 0 0-264.448L0 252.672 0 517.12 0 517.12zM0 129.728l254.336 0L254.336-128 0-128 0 129.728 0 129.728zM377.216 129.728l266.176 0L643.392-128 377.216-128 377.216 129.728 377.216 129.728zM766.336 129.728 1024 129.728 1024-128l-257.664 0L766.336 129.728 766.336 129.728zM766.336 129.728"  horiz-adv-x="1024" />

    
    <glyph glyph-name="message" unicode="&#58625;" d="M512.448 31.296c-32.768 0-64.704 2.752-95.808 7.424l-224.512-124.992v208.128c-116.992 75.456-192.128 191.104-192.128 320.896 0 227.264 229.376 411.456 512.448 411.456s512.448-184.192 512.448-411.456c0-227.264-229.376-411.456-512.448-411.456v0z"  horiz-adv-x="1025" />

    
    <glyph glyph-name="remove_from_queue" unicode="&#59022;" d="M896 793.6h-819.2c-42.342 0-76.8-34.458-76.8-76.8v-512c0-42.342 34.458-76.8 76.8-76.8h384v-102.4h-179.2c-14.131 0-25.6-11.469-25.6-25.6s11.469-25.6 25.6-25.6h409.6c14.131 0 25.6 11.469 25.6 25.6s-11.469 25.6-25.6 25.6h-179.2v102.4h384c42.342 0 76.8 34.458 76.8 76.8v512c0 42.342-34.458 76.8-76.8 76.8zM921.6 204.8c0-14.131-11.469-25.6-25.6-25.6h-819.2c-14.131 0-25.6 11.469-25.6 25.6v512c0 14.131 11.469 25.6 25.6 25.6h819.2c14.131 0 25.6-11.469 25.6-25.6v-512z"  horiz-adv-x="1024" />

    
    <glyph glyph-name="you" unicode="&#58896;" d="M344.832 87.68c0 15.232 5.802667 30.677333 17.536 42.325333l253.952 253.952-254.037333 254.08a59.861333 59.861333 0 1 0 84.650666 84.736l296.405334-296.533333a59.861333 59.861333 0 0 0 0-84.650667l-296.405334-296.362666a59.733333 59.733333 0 0 0-102.101333 42.453333z"  horiz-adv-x="1024" />

    
    <glyph glyph-name="shouji" unicode="&#58909;" d="M749.4144 790.0672H276.7872v-741.5296h472.576V790.0672zM513.024-87.3984a47.7696 47.7696 0 1 1 0 95.488 47.7696 47.7696 0 0 1 0-95.488z m253.952-40.6016H259.2256C229.1712-128 204.8-104.2944 204.8-75.0592V843.0592C204.8 872.2944 229.1712 896 259.2256 896h507.8016c30.0544 0 54.3744-23.7056 54.3744-52.9408v-918.1184c0-29.184-24.32-52.9408-54.4256-52.9408z"  horiz-adv-x="1024" />

    
    <glyph glyph-name="chuizi" unicode="&#58947;" d="M260.8 780.1s-53.8 17.3-50-44.2c3.8-61.6 13.5-65.4 44.2-67.3s134.7 21.1 134.7-76.9-7.7-521.3-7.7-521.3 5.8-38.5 23.1-52 71.2-57.7 80.8-11.5c9.6 46.2 0 594.3 0 594.3s-3.8 65.4 67.3 61.6 194.3-17.3 194.3-17.3S582 762.7 430.1 772.3c-151.9 9.6-169.3 7.8-169.3 7.8"  horiz-adv-x="1024" />

    
    <glyph glyph-name="houtai-changfangxing" unicode="&#59010;" d="M222.088 864c-12.71 0-22.904-10.062-22.904-22.454l0.001-914.113c0-12.394 10.723-23.433 23.43-23.433h578.378c12.637 0 23.43 11.040 23.43 23.433l-0.001 913.138c0.002 12.322-10.791 23.429-23.429 23.429h-578.905zM246.048-48.288l-0.98 16.232 0.98 849.192 533.056-0.080v-865.424l-533.056 0.080z"  horiz-adv-x="1024" />

    
    <glyph glyph-name="sousuo" unicode="&#58930;" d="M474.453333 11.946667c-225.28 0-409.6 184.32-409.6 409.6s184.32 409.6 409.6 409.6 409.6-184.32 409.6-409.6-184.32-409.6-409.6-409.6z m0 68.266666c187.733333 0 341.333333 153.6 341.333334 341.333334s-153.6 341.333333-341.333334 341.333333-341.333333-153.6-341.333333-341.333333 153.6-341.333333 341.333333-341.333334z m252.586667-54.613333c-13.653333 13.653333-10.24 37.546667 3.413333 47.786667s37.546667 10.24 47.786667-3.413334l64.853333-78.506666c13.653333-13.653333 10.24-37.546667-3.413333-47.786667s-37.546667-10.24-47.786667 3.413333l-64.853333 78.506667z"  horiz-adv-x="1024" />

    
    <glyph glyph-name="choose" unicode="&#58630;" d="M254.68710388969328 498.9281706602777L512 217.61596321174147 769.3464615807095 498.92817066027806Z"  horiz-adv-x="1024" />

    
    <glyph glyph-name="touxiang" unicode="&#58955;" d="M455.1168 797.764267c-29.713067 0-25.1392-13.056-41.130667-15.291734-15.991467-2.2528 3.242667 6.314667-44.7488-2.6624-47.957333-8.994133-64.904533-69.614933-67.191466-92.074666-2.286933-22.442667-2.850133-85.5552-1.3312-119.2448 4.573867-20.206933-11.434667-20.206933-11.434667-20.206934-28.7232 1.809067-15.803733-86.237867-15.803733-86.237866 4.130133-21.674667-1.501867-32.494933 41.079466-49.322667 20.2752-56.746667 73.233067-86.766933 73.233067-86.766933s0.273067 5.597867 1.0752-20.3264c-4.334933 2.116267 35.1232-66.269867-97.109333-85.469867-132.215467-19.165867-157.525333-101.888-182.442667-125.303467C84.343467 71.406933 85.333333-42.205867 85.333333-42.205867L938.666667-42.666667s-6.331733 114.0736-31.266134 137.5232c-24.917333 23.415467-52.087467 106.154667-184.302933 125.320534-128.546133 18.261333-87.074133 85.7088-87.978667 89.736533 0.238933 10.222933 1.6384 12.919467 1.6384 12.919467s44.885333 34.816 65.143467 91.5968c31.914667 19.797333 44.066133 22.562133 49.3568 45.3632 0 0 9.386667 88.968533-20.753067 88.507733 0 0-14.2848-4.5056-9.710933 15.701333 4.573867 20.206933 3.054933 83.336533 0.768 105.7792-2.286933 22.459733 1.160533 86.6304-46.813867 95.624534-32.750933 5.9904-37.034667 0.0512-53.009066 2.286933C605.7472 769.9456 566.357333 810.666667 536.661333 810.666667l-81.544533-12.9024z"  horiz-adv-x="1024" />

    
    <glyph glyph-name="xingzhuang" unicode="&#58949;" d="M60.998244 854.517167L19.019017-83.96693900000002A43.913229 43.913229 0 0 1 63.50107-127.95601099999999h896.808252a42.434286 42.434286 0 0 1 44.444132 43.989072l-34.584512 938.484106A43.609856 43.609856 0 0 1 925.72481 895.92757H105.480297a42.017148 42.017148 0 0 1-44.482053-41.448324z m731.280406-251.116928v-4.853967a279.178923 279.178923 0 0 0-558.357846 0 14.486057 14.486057 0 0 0 2.464905 9.745855A56.010224 56.010224 0 0 0 209.195911 657.021401a58.133834 58.133834 0 0 0 59.309405 58.51305A59.726542 59.726542 0 0 0 327.776799 657.021401a60.37121 60.37121 0 0 0-49.298099-58.475129 234.734791 234.734791 0 0 1 469.39374 0v2.426983a58.475129 58.475129 0 0 0 17.292256 114.561196A59.726542 59.726542 0 0 0 824.4741 657.021401a54.000378 54.000378 0 0 0-32.119607-53.621162z"  horiz-adv-x="1024" />

    
    <glyph glyph-name="wenhao" unicode="&#58925;" d="M514 832.8c-242.6 0-439.3-200.6-439.3-448.1S271.4-63.4 514-63.4s439.3 200.6 439.3 448.1S756.6 832.8 514 832.8z m50.8-704.3H450V236.4h114.8v-107.9zM611.7 384c-43.8-29.7-63.3-58.6-58.6-86.7v-18.8h-93.8v25.8c-1.6 48.4 18.8 87.5 60.9 117.2 39 31.2 57.8 59.4 56.3 84.4-3.1 32.8-21.1 50.8-53.9 53.9-43.8 0-71.1-28.9-82-86.7l-105.5 23.4c18.8 106.2 86.7 157.8 203.9 154.7 96.9-4.7 149.2-48.4 157-131.3 3.2-50-24.9-95.3-84.3-135.9z"  horiz-adv-x="1024" />

    
    <glyph glyph-name="shouji1" unicode="&#58940;" d="M785.46732626 880.76611635H238.5313792c-27.29145584 0-49.42806029-22.13142629-49.42806029-49.4384166v-894.6553995c0-27.30181215 22.13660445-49.43841659 49.42806029-49.4384166h546.93594706c27.29663399 0 49.42806029 22.13660445 49.42806029 49.4384166v894.6553995c0 27.3069903-22.13142629 49.43841659-49.42806029 49.4384166zM512.00517815-63.08432656000002c-27.44162228 0-49.68178978 22.2401675-49.68178979 49.67143349 0 27.44162228 22.2401675 49.68178978 49.68178979 49.68178978 27.43126597 0 49.67143348-22.2401675 49.67143349-49.68178978 0-27.43126597-22.2401675-49.67143348-49.67143349-49.67143349z m223.54345782 149.02336221H288.46042579V781.41418762h447.08691564v-695.47515197z"  horiz-adv-x="1024" />

    
    <glyph glyph-name="bug" unicode="&#59257;" d="M1023.97524 318.200429c-0.955999-34.859974-30.433977-62.199954-65.305952-62.199954H847.999371v-31.999976c0-43.727968-9.763993-85.167937-27.19998-122.289909l120.45591-120.455911c24.991981-24.993981 24.991981-65.515951 0-90.509933-24.995981-24.993981-65.517951-24.991981-90.511932 0l-109.471919 109.471919C691.771487-39.929305 628.701533-63.999288 559.999584-63.999288V424.00035c0 13.25399-10.745992 23.999982-23.999982 23.999982h-47.999964c-13.25399 0-23.999982-10.745992-23.999982-23.999982v-487.999638c-68.701949 0-131.771902 24.069982-181.271866 64.215953l-109.471919-109.471919c-24.995981-24.993981-65.517951-24.991981-90.511932 0-24.991981 24.993981-24.991981 65.515951 0 90.509933l120.45591 120.455911C185.763862 138.832562 175.999869 180.272531 175.999869 224.000499v31.999976H65.331952C30.459977 256.000475 0.981999 283.340455 0.026 318.200429-0.967999 354.368402 28.055979 384.00038 63.999953 384.00038h111.999916v117.489913l-93.25593 93.255931c-24.991981 24.993981-24.991981 65.515951 0 90.509932 24.995981 24.993981 65.515951 24.993981 90.511932 0L282.50979 576.000237h458.97766l109.253919 109.253919c24.995981 24.993981 65.515951 24.993981 90.511932 0 24.991981-24.993981 24.991981-65.515951 0-90.509932L847.999371 501.490293V384.00038h111.999917c35.943973 0 64.967952-29.631978 63.975952-65.799951zM513.999619 896c-123.711908 0-223.999834-100.287926-223.999834-223.999834h447.999667C737.999452 795.712074 637.711527 896 513.999619 896z"  horiz-adv-x="1024" />

    
    <glyph glyph-name="wenzhang" unicode="&#58965;" d="M192 832a64 64 0 0 1-64-64v-768a64 64 0 0 1 64-64h640a64 64 0 0 1 64 64V768a64 64 0 0 1-64 64H192z m0 64h640a128 128 0 0 0 128-128v-768a128 128 0 0 0-128-128H192a128 128 0 0 0-128 128V768a128 128 0 0 0 128 128zM284.416 576C268.8 576 256 590.336 256 608s12.736 32 28.416 32h455.168c15.68 0 28.416-14.336 28.416-32s-12.736-32-28.416-32H284.416z m0-208C268.8 368 256 382.336 256 400s12.736 32 28.416 32h455.168c15.68 0 28.416-14.336 28.416-32s-12.736-32-28.416-32H284.416z m0-208C268.8 160 256 174.336 256 192s12.736 32 28.416 32h369.792c15.744 0 28.48-14.336 28.48-32s-12.8-32-28.48-32H284.416z"  horiz-adv-x="1024" />

    
    <glyph glyph-name="icon-test" unicode="&#58897;" d="M726.162286 197.778286c0-134.144-89.088-222.208-215.04-222.208S295.058286 58.514286 295.058286 193.682286c0 59.392 22.528 115.712 54.272 179.2l165.888 337.92h111.616l-156.672-313.344c19.456 8.192 41.984 11.264 64.512 11.264 105.472 0 191.488-82.944 191.488-210.944zM621.714286 195.730286c0 71.68-41.984 125.952-111.616 125.952-65.536 0-110.592-47.104-110.592-125.952 0-77.824 45.056-126.976 110.592-126.976S621.714286 117.906286 621.714286 195.730286z"  horiz-adv-x="1024" />

    
    <glyph glyph-name="weibo" unicode="&#59036;" d="M93.6 244.8c0-113.6 148-205.6 329.6-205.6 182.4 0 329.6 92 329.6 205.6S604.8 450.4 423.2 450.4c-181.6 0-329.6-92-329.6-205.6M753.6 408c-13.6 4-23.2 7.2-16 24.8 15.2 39.2 16.8 72.8 0 96.8-32 44.8-118.4 42.4-217.6 1.6 0 0-31.2-13.6-23.2 11.2 15.2 48.8 12.8 90.4-10.4 113.6-53.6 53.6-196.8-2.4-320-124.8-91.2-92-144-189.6-144-273.6 0-160.8 206.4-259.2 408.8-259.2 264.8 0 441.6 153.6 441.6 276-0.8 74.4-63.2 116-119.2 133.6z m-322.4-352c-161.6-16-300.8 56.8-311.2 163.2C109.6 324.8 232 424 393.6 440c161.6 16 300.8-56.8 311.2-163.2 10.4-105.6-112-204.8-273.6-220.8zM929.6 702.4c-64 71.2-158.4 97.6-245.6 79.2-20-4-32.8-24-28.8-44 4-20 24-32.8 44-28.8 61.6 12.8 128.8-6.4 174.4-56.8 45.6-50.4 57.6-119.2 38.4-179.2-6.4-20 4-40.8 24-47.2 19.2-6.4 40.8 4 47.2 24 28 85.6 10.4 182.4-53.6 252.8M832 613.6c-31.2 34.4-76.8 48-119.2 38.4-17.6-4-28.8-20.8-24.8-38.4 4-17.6 20.8-28.8 38.4-24.8 20.8 4 43.2-2.4 58.4-19.2 15.2-16.8 19.2-40 12.8-60-5.6-16.8 4-35.2 20.8-40.8 16.8-5.6 35.2 4 40.8 20.8 12 42.4 4 89.6-27.2 124M447.2 358.4c-76.8 20-163.2-18.4-196.8-85.6-33.6-68.8-0.8-145.6 76.8-170.4 80-25.6 175.2 13.6 208 88 32 72-8 147.2-88 168z m-58.4-176c-16-24.8-48.8-36-74.4-24-24.8 11.2-32 40-16.8 64.8 15.2 24 48 35.2 72.8 24.8 25.6-12 33.6-40.8 18.4-65.6zM440 248c-5.6-9.6-18.4-14.4-28-10.4-9.6 4-12.8 14.4-7.2 24 5.6 9.6 17.6 14.4 27.2 10.4 10.4-3.2 13.6-14.4 8-24z"  horiz-adv-x="1024" />

    
    <glyph glyph-name="yanjing" unicode="&#58634;" d="M1455.453 383.4c0-104.587-225.013-327.613-545.733-327.613C597.2 55.707 364 275.12 364 383.4c0 108.2 234.227 327.267 545.72 327.267 323.187 0 545.8-219.067 545.733-327.267zM910.2 650.867c-145.267 0-262.96-119.814-262.96-267.614 0-147.8 117.76-267.666 262.96-267.666 145.267 0 263.027 119.88 263.027 267.666 0.013 147.8-117.76 267.614-263.027 267.614z m-0.48-96.8c-92.507 0-167.453-76.32-167.453-170.467 0-94.133 74.96-170.387 167.453-170.387s167.453 76.32 167.453 170.454c0.014 94.146-74.946 170.4-167.453 170.4z m0 0"  horiz-adv-x="1821" />

    
    <glyph glyph-name="weixin" unicode="&#58939;" d="M512 384m-512 0a512 512 0 1 1 1024 0 512 512 0 1 1-1024 0ZM839.68 302.08c0 93.622857-93.622857 166.765714-196.022857 166.765714-111.177143 0-196.022857-76.068571-196.022857-166.765714 0-93.622857 87.771429-166.765714 196.022857-166.765714 23.405714 0 46.811429 5.851429 70.217143 11.702857l64.365714-35.108572-17.554286 58.514286c43.885714 32.182857 78.994286 78.994286 78.994286 131.657143z m-257.462857 26.331429c-14.628571 0-26.331429 11.702857-26.331429 26.331428s11.702857 26.331429 26.331429 26.331429 26.331429-11.702857 26.331428-26.331429-11.702857-26.331429-26.331428-26.331428z m125.805714 0c-14.628571 0-26.331429 11.702857-26.331428 26.331428s11.702857 26.331429 26.331428 26.331429 26.331429-11.702857 26.331429-26.331429-11.702857-26.331429-26.331429-26.331428zM415.451429 644.388571c-128.731429 0-231.131429-87.771429-231.131429-196.022857 0-64.365714 35.108571-117.028571 93.622857-155.062857L254.537143 223.085714l81.92 40.96c29.257143-5.851429 52.662857-11.702857 81.92-11.702857h20.48c-5.851429 14.628571-5.851429 32.182857-5.851429 49.737143 0 102.4 87.771429 184.32 196.022857 184.32h23.405715c-23.405714 87.771429-122.88 157.988571-236.982857 157.988571z m-76.068572-160.914285c-17.554286 0-32.182857 14.628571-32.182857 32.182857s14.628571 32.182857 32.182857 32.182857 32.182857-14.628571 32.182857-32.182857-14.628571-32.182857-32.182857-32.182857z m160.914286 0c-17.554286 0-32.182857 14.628571-32.182857 32.182857s14.628571 32.182857 32.182857 32.182857 32.182857-14.628571 32.182857-32.182857-14.628571-32.182857-32.182857-32.182857z"  horiz-adv-x="1024" />

    
    <glyph glyph-name="shouye" unicode="&#58921;" d="M841.6-12.8h-256V256h-147.2v-268.8h-256V345.6h-160L512 784l489.6-438.4h-160v-358.4z m-224 32h192V377.6h108.8L512 742.4 105.6 377.6h108.8v-358.4h192V288h211.2v-268.8z"  horiz-adv-x="1024" />

    


  </font>
</defs>
</svg>
